<?xml version="1.0" standalone="no"?>
<!DOCTYPE svg PUBLIC "-//W3C//DTD SVG 20010904//EN"
 "http://www.w3.org/TR/2001/REC-SVG-20010904/DTD/svg10.dtd">
<svg version="1.0" xmlns="http://www.w3.org/2000/svg"
 width="171.000000pt" height="137.000000pt" viewBox="0 0 171.000000 137.000000"
 preserveAspectRatio="xMidYMid meet">

<g transform="translate(0.000000,137.000000) scale(0.100000,-0.100000)"
fill="#000000" stroke="none">
<path d="M507 1093 c-4 -3 -7 -73 -7 -155 l0 -150 121 -131 c67 -73 135 -140
153 -149 39 -23 113 -23 152 0 17 9 83 74 148 144 l117 126 -3 163 -3 162
-107 -91 -106 -92 -126 0 -126 0 -82 72 c-46 39 -92 80 -104 90 -11 10 -24 15
-27 11z m659 -270 c-4 -5 -113 56 -145 81 -11 8 3 25 65 82 l79 72 3 -115 c1
-64 1 -118 -2 -120z m-570 176 c109 -94 107 -80 20 -133 -42 -25 -81 -46 -86
-46 -6 0 -10 48 -10 115 0 63 4 115 8 115 5 0 35 -23 68 -51z m364 -112 c0
-11 -89 -284 -106 -327 -5 -12 -64 146 -120 323 -5 15 5 17 110 17 88 0 116
-3 116 -13z m-190 -183 c34 -102 60 -188 57 -190 -15 -15 -84 41 -184 151
l-113 123 83 50 c45 28 85 51 89 51 3 1 34 -83 68 -185z m313 136 c42 -25 77
-47 77 -50 0 -3 -52 -63 -116 -132 -72 -79 -127 -131 -146 -137 -17 -6 -33
-10 -34 -8 -8 8 122 377 131 375 6 -2 45 -23 88 -48z"/>
<path d="M290 325 l0 -35 21 21 c22 22 19 49 -6 49 -11 0 -15 -10 -15 -35z
m30 15 c0 -5 -5 -10 -11 -10 -5 0 -7 5 -4 10 3 6 8 10 11 10 2 0 4 -4 4 -10z"/>
<path d="M370 339 c0 -11 5 -17 10 -14 6 3 10 1 10 -4 0 -6 -7 -11 -15 -11 -8
0 -15 -4 -15 -8 0 -4 9 -8 20 -8 21 0 23 7 14 44 -8 28 -24 29 -24 1z"/>
<path d="M441 325 c0 -35 1 -37 10 -17 6 15 5 30 -1 40 -7 13 -9 8 -9 -23z"/>
<path d="M467 331 c-4 -19 -5 -36 -2 -39 10 -11 16 7 13 40 l-3 33 -8 -34z"/>
<path d="M530 358 c0 -2 -4 -17 -9 -34 -8 -28 -7 -31 13 -31 19 0 22 4 18 28
-2 16 -8 32 -13 35 -5 3 -9 4 -9 2z"/>
<path d="M594 346 c-3 -8 -4 -25 -1 -38 3 -17 5 -15 6 10 1 22 5 31 13 26 7
-4 8 -3 4 4 -10 16 -15 15 -22 -2z"/>
<path d="M663 325 c0 -22 2 -30 4 -17 2 12 2 30 0 40 -3 9 -5 -1 -4 -23z"/>
<path d="M717 354 c-11 -11 -8 -62 3 -69 5 -3 15 6 22 20 9 21 9 29 -3 41 -8
8 -18 11 -22 8z m10 -51 c-3 -10 -5 -2 -5 17 0 19 2 27 5 18 2 -10 2 -26 0
-35z"/>
<path d="M789 323 c5 -37 6 -37 9 -8 2 16 9 33 15 37 8 5 4 8 -8 8 -18 0 -20
-5 -16 -37z"/>
<path d="M853 325 c0 -22 2 -30 4 -17 2 12 2 30 0 40 -3 9 -5 -1 -4 -23z"/>
<path d="M907 353 c-8 -14 -5 -63 4 -69 14 -8 23 26 10 39 -14 14 -14 30 1 21
7 -4 8 -3 4 4 -8 14 -13 15 -19 5z"/>
<path d="M1019 351 c10 -6 11 -13 2 -29 -16 -31 -13 -41 4 -12 19 34 19 50 -2
50 -14 0 -15 -2 -4 -9z"/>
<path d="M1087 354 c-11 -11 -8 -62 3 -69 5 -3 15 6 22 20 9 21 9 29 -3 41 -8
8 -18 11 -22 8z m10 -51 c-3 -10 -5 -2 -5 17 0 19 2 27 5 18 2 -10 2 -26 0
-35z"/>
<path d="M1152 327 c-2 -32 1 -38 16 -35 11 2 17 13 18 33 1 28 1 29 -3 3 -6
-38 -21 -35 -26 5 -4 31 -4 31 -5 -6z"/>
<path d="M1220 325 l0 -35 21 21 c22 22 19 49 -6 49 -11 0 -15 -10 -15 -35z
m30 15 c0 -5 -5 -10 -11 -10 -5 0 -7 5 -4 10 3 6 8 10 11 10 2 0 4 -4 4 -10z"/>
<path d="M1300 341 c0 -11 6 -22 13 -24 7 -3 5 -6 -5 -6 -25 -1 -23 -17 2 -17
21 0 23 7 14 44 -8 27 -24 29 -24 3z"/>
<path d="M1365 349 c-4 -5 1 -19 10 -29 15 -17 15 -19 -2 -23 -14 -4 -14 -5 5
-6 22 -1 31 22 12 34 -5 3 -10 11 -10 16 0 6 5 7 12 3 7 -4 8 -3 4 4 -9 15
-23 15 -31 1z"/>
<path d="M610 304 c0 -8 5 -12 10 -9 6 3 10 10 10 16 0 5 -4 9 -10 9 -5 0 -10
-7 -10 -16z"/>
</g>
</svg>
